<svg xmlns="http://www.w3.org/2000/svg" xmlns:xlink="http://www.w3.org/1999/xlink" version="1.2" width="174.91mm" height="13.77mm" viewBox="8.5358 -0.0210 99.5346 7.8333">
<style type="text/css">
<![CDATA[
tspan { white-space: pre; }
]]>
</style>
<g transform="translate(8.5358, 5.7790)">
<line stroke-linejoin="round" stroke-linecap="round" stroke-width="0.1000" stroke="currentColor" x1="0.0500" y1="0" x2="99.5346" y2="0"/>
</g>
<g transform="translate(8.5358, 4.7790)">
<line stroke-linejoin="round" stroke-linecap="round" stroke-width="0.1000" stroke="currentColor" x1="0.0500" y1="0" x2="99.5346" y2="0"/>
</g>
<g transform="translate(8.5358, 3.7790)">
<line stroke-linejoin="round" stroke-linecap="round" stroke-width="0.1000" stroke="currentColor" x1="0.0500" y1="0" x2="99.5346" y2="0"/>
</g>
<g transform="translate(8.5358, 2.7790)">
<line stroke-linejoin="round" stroke-linecap="round" stroke-width="0.1000" stroke="currentColor" x1="0.0500" y1="0" x2="99.5346" y2="0"/>
</g>
<g transform="translate(8.5358, 1.7790)">
<line stroke-linejoin="round" stroke-linecap="round" stroke-width="0.1000" stroke="currentColor" x1="0.0500" y1="0" x2="99.5346" y2="0"/>
</g>
<g transform="translate(0.0000, 6.7790)">
<rect x="13.8453" y="-0.1000" width="2.9430" height="0.2000" ry="0.1000" fill="currentColor"/>
</g>
<a style="color:inherit;" xlink:href="textedit:///Users/joellaity/code/music_notes/lilypond_src/cmajor_scale.ly:16:4:5">
<g transform="translate(20.7907, 7.7457)">
<text font-family="serif" font-size="2.2000" text-anchor="start" fill="currentColor">
<tspan> T</tspan>
</text>
</g>
</a>
<a style="color:inherit;" xlink:href="textedit:///Users/joellaity/code/music_notes/lilypond_src/cmajor_scale.ly:17:2:3">
<g transform="translate(27.2455, 6.2790)">
<path transform="scale(0.0040, -0.0040)" d="M213 112c-45 0 -69 -34 -69 -88c0 -102 89 -136 134 -136s69 34 69 88c0 102 -89 136 -134 136zM245 136c144 0 246 -65 246 -136s-102 -136 -246 -136s-245 65 -245 136s101 136 245 136z" fill="currentColor"/>
</g>
</a>
<a style="color:inherit;" xlink:href="textedit:///Users/joellaity/code/music_notes/lilypond_src/cmajor_scale.ly:18:4:5">
<g transform="translate(33.7004, 7.7457)">
<text font-family="serif" font-size="2.2000" text-anchor="start" fill="currentColor">
<tspan> T</tspan>
</text>
</g>
</a>
<a style="color:inherit;" xlink:href="textedit:///Users/joellaity/code/music_notes/lilypond_src/cmajor_scale.ly:19:2:3">
<g transform="translate(40.1552, 5.7790)">
<path transform="scale(0.0040, -0.0040)" d="M213 112c-45 0 -69 -34 -69 -88c0 -102 89 -136 134 -136s69 34 69 88c0 102 -89 136 -134 136zM245 136c144 0 246 -65 246 -136s-102 -136 -246 -136s-245 65 -245 136s101 136 245 136z" fill="currentColor"/>
</g>
</a>
<a style="color:inherit;" xlink:href="textedit:///Users/joellaity/code/music_notes/lilypond_src/cmajor_scale.ly:20:4:5">
<g transform="translate(46.6100, 7.7790)">
<text font-family="serif" font-size="2.2000" text-anchor="start" fill="currentColor">
<tspan> S</tspan>
</text>
</g>
</a>
<a style="color:inherit;" xlink:href="textedit:///Users/joellaity/code/music_notes/lilypond_src/cmajor_scale.ly:21:2:3">
<g transform="translate(53.0649, 5.2790)">
<path transform="scale(0.0040, -0.0040)" d="M213 112c-45 0 -69 -34 -69 -88c0 -102 89 -136 134 -136s69 34 69 88c0 102 -89 136 -134 136zM245 136c144 0 246 -65 246 -136s-102 -136 -246 -136s-245 65 -245 136s101 136 245 136z" fill="currentColor"/>
</g>
</a>
<a style="color:inherit;" xlink:href="textedit:///Users/joellaity/code/music_notes/lilypond_src/cmajor_scale.ly:22:4:5">
<g transform="translate(59.5197, 7.7457)">
<text font-family="serif" font-size="2.2000" text-anchor="start" fill="currentColor">
<tspan> T</tspan>
</text>
</g>
</a>
<a style="color:inherit;" xlink:href="textedit:///Users/joellaity/code/music_notes/lilypond_src/cmajor_scale.ly:23:2:3">
<g transform="translate(65.9746, 4.7790)">
<path transform="scale(0.0040, -0.0040)" d="M213 112c-45 0 -69 -34 -69 -88c0 -102 89 -136 134 -136s69 34 69 88c0 102 -89 136 -134 136zM245 136c144 0 246 -65 246 -136s-102 -136 -246 -136s-245 65 -245 136s101 136 245 136z" fill="currentColor"/>
</g>
</a>
<g transform="translate(9.3358, 4.7790)">
<path transform="scale(0.0040, -0.0040)" d="M266 -635h-6c-108 0 -195 88 -195 197c0 58 53 103 112 103c54 0 95 -47 95 -103c0 -52 -43 -95 -95 -95c-11 0 -21 2 -31 6c26 -39 68 -65 117 -65h4zM461 -203c68 24 113 90 113 164c0 90 -66 179 -173 190c19 -89 48 -242 60 -354zM74 28c0 -145 141 -247 264 -247
c1 0 47 0 82 6c-7 64 -29 203 -63 364c-79 -8 -124 -61 -124 -119c0 -44 25 -91 81 -123c5 -5 7 -10 7 -15c0 -11 -10 -22 -22 -22c-15 0 -126 62 -126 187c0 88 58 174 160 197c-14 58 -29 117 -46 175c-107 -121 -213 -243 -213 -403zM250 553c-29 96 -52 170 -52 346
c0 115 55 224 149 292c6 5 14 5 20 0c68 -80 133 -245 133 -358c0 -143 -86 -255 -180 -364c21 -68 39 -138 56 -207c2 0 7 1 13 1c155 0 256 -128 256 -261c0 -113 -74 -212 -180 -246c3 -35 5 -70 5 -105c0 -19 -1 -39 -2 -58c-7 -119 -88 -225 -202 -228l1 43
c93 2 153 92 159 191c1 18 2 37 2 55c0 31 -1 61 -4 92c-5 -1 -44 -8 -89 -8c-193 0 -333 180 -333 374c0 177 131 306 248 441zM428 916c0 34 1 66 -20 129c-99 -48 -162 -149 -162 -259c0 -52 12 -115 36 -194c80 97 146 198 146 324z" fill="currentColor"/>
</g>
<a style="color:inherit;" xlink:href="textedit:///Users/joellaity/code/music_notes/lilypond_src/cmajor_scale.ly:24:4:5">
<g transform="translate(72.4294, 7.7457)">
<text font-family="serif" font-size="2.2000" text-anchor="start" fill="currentColor">
<tspan> T</tspan>
</text>
</g>
</a>
<a style="color:inherit;" xlink:href="textedit:///Users/joellaity/code/music_notes/lilypond_src/cmajor_scale.ly:15:2:3">
<g transform="translate(14.3358, 6.7790)">
<path transform="scale(0.0040, -0.0040)" d="M213 112c-45 0 -69 -34 -69 -88c0 -102 89 -136 134 -136s69 34 69 88c0 102 -89 136 -134 136zM245 136c144 0 246 -65 246 -136s-102 -136 -246 -136s-245 65 -245 136s101 136 245 136z" fill="currentColor"/>
</g>
</a>
<a style="color:inherit;" xlink:href="textedit:///Users/joellaity/code/music_notes/lilypond_src/cmajor_scale.ly:25:2:3">
<g transform="translate(78.8843, 4.2790)">
<path transform="scale(0.0040, -0.0040)" d="M213 112c-45 0 -69 -34 -69 -88c0 -102 89 -136 134 -136s69 34 69 88c0 102 -89 136 -134 136zM245 136c144 0 246 -65 246 -136s-102 -136 -246 -136s-245 65 -245 136s101 136 245 136z" fill="currentColor"/>
</g>
</a>
<a style="color:inherit;" xlink:href="textedit:///Users/joellaity/code/music_notes/lilypond_src/cmajor_scale.ly:26:4:5">
<g transform="translate(85.3391, 7.7457)">
<text font-family="serif" font-size="2.2000" text-anchor="start" fill="currentColor">
<tspan> T</tspan>
</text>
</g>
</a>
<a style="color:inherit;" xlink:href="textedit:///Users/joellaity/code/music_notes/lilypond_src/cmajor_scale.ly:27:2:3">
<g transform="translate(91.7939, 3.7790)">
<path transform="scale(0.0040, -0.0040)" d="M213 112c-45 0 -69 -34 -69 -88c0 -102 89 -136 134 -136s69 34 69 88c0 102 -89 136 -134 136zM245 136c144 0 246 -65 246 -136s-102 -136 -246 -136s-245 65 -245 136s101 136 245 136z" fill="currentColor"/>
</g>
</a>
<a style="color:inherit;" xlink:href="textedit:///Users/joellaity/code/music_notes/lilypond_src/cmajor_scale.ly:29:2:3">
<g transform="translate(104.7036, 3.2790)">
<path transform="scale(0.0040, -0.0040)" d="M213 112c-45 0 -69 -34 -69 -88c0 -102 89 -136 134 -136s69 34 69 88c0 102 -89 136 -134 136zM245 136c144 0 246 -65 246 -136s-102 -136 -246 -136s-245 65 -245 136s101 136 245 136z" fill="currentColor"/>
</g>
</a>
<a style="color:inherit;" xlink:href="textedit:///Users/joellaity/code/music_notes/lilypond_src/cmajor_scale.ly:28:4:5">
<g transform="translate(98.2488, 7.7790)">
<text font-family="serif" font-size="2.2000" text-anchor="start" fill="currentColor">
<tspan> S</tspan>
</text>
</g>
</a>
</svg>
